# xmcd
#
# Track frame offsets: 
#        150
#        30801
#        53062
#        73153
#        93791
#        116381
#        135310
#        149688
#        161512
#        183538
#        203307
#        229051
#        247722
#
# Disc length: 3590 seconds
#
# Revision: 0
# Processed by: cddbd v1.5.2PL0 Copyright (c) Steve Scherf et al.
# Submitted via: ExactAudioCopy v1.0b3
#
DISCID=9d0e040d
DTITLE=Anders Osborne - Peace radio promo
DYEAR=2013
DGENRE=Blues
TTITLE0=Peace
TTITLE1=Peace radio edit
TTITLE2=47 radio edit
TTITLE3=Let it Go radio edit
TTITLE4=Windows
TTITLE5=Windows radio edit
TTITLE6=Five Bullets
TTITLE7=Brush Up Against Me
TTITLE8=Sentimental Times
TTITLE9=Dream Girl
TTITLE10=Sarah Anne
TTITLE11=I'm Ready
TTITLE12=My Son
EXTD=
EXTT0=
EXTT1=
EXTT2=
EXTT3=
EXTT4=
EXTT5=
EXTT6=
EXTT7=
EXTT8=
EXTT9=
EXTT10=
EXTT11=
EXTT12=
PLAYORDER=
